<svg xmlns="http://www.w3.org/2000/svg" xmlns:xlink="http://www.w3.org/1999/xlink" width="500" zoomAndPan="magnify" viewBox="0 0 375 374.999991" height="500" preserveAspectRatio="xMidYMid meet" version="1.0"><defs><clipPath id="eac4864c54"><path d="M 28.636719 0 L 346.601562 0 L 346.601562 375 L 28.636719 375 Z M 28.636719 0 " clip-rule="nonzero"/></clipPath><clipPath id="b530f0bec9"><path d="M 270.6875 299.324219 L 346.363281 299.324219 L 346.363281 375 L 270.6875 375 Z M 270.6875 299.324219 " clip-rule="nonzero"/></clipPath><clipPath id="e8b87b22bb"><path d="M 308.527344 299.324219 C 287.628906 299.324219 270.6875 316.265625 270.6875 337.164062 C 270.6875 358.058594 287.628906 375 308.527344 375 C 329.421875 375 346.363281 358.058594 346.363281 337.164062 C 346.363281 316.265625 329.421875 299.324219 308.527344 299.324219 Z M 308.527344 299.324219 " clip-rule="nonzero"/></clipPath></defs><g clip-path="url(#eac4864c54)"><path fill="#d93b60" d="M 346.390625 130.289062 C 346.390625 124.859375 346.046875 119.390625 345.382812 114.042969 C 341.574219 83.417969 326.878906 55.027344 304.011719 34.113281 C 280.984375 13.058594 251.128906 0.960938 219.964844 0.0546875 C 219.902344 0.0546875 219.835938 0.0546875 219.765625 0.046875 C 218.542969 0.015625 217.308594 0 216.101562 0 C 214.894531 0 213.667969 0.015625 212.460938 0.046875 C 212.4375 0.046875 212.414062 0.046875 212.390625 0.046875 C 121.746094 1.804688 45.476562 67.957031 31.042969 157.3125 C 30.390625 161.285156 29.867188 165.269531 29.492188 169.148438 C 29.492188 169.15625 29.492188 169.15625 29.492188 169.15625 C 29.492188 169.164062 29.492188 169.171875 29.492188 169.179688 C 29.492188 169.179688 29.492188 169.1875 29.492188 169.1875 C 29.492188 169.1875 29.492188 169.195312 29.492188 169.195312 C 28.902344 175.1875 28.609375 181.339844 28.609375 187.492188 C 28.609375 231.996094 44.347656 274.820312 73.023438 308.65625 C 73.667969 310.023438 74.503906 311.308594 75.5625 312.488281 C 111.105469 352.203125 162.046875 374.976562 215.308594 374.976562 C 224.082031 374.976562 231.195312 367.863281 231.195312 359.085938 L 231.195312 259.679688 C 295.925781 252.152344 346.390625 196.957031 346.390625 130.289062 Z M 200.214844 32.589844 L 200.214844 228.171875 C 200.023438 228.15625 199.832031 228.148438 199.640625 228.132812 C 198.988281 228.082031 198.34375 228.019531 197.703125 227.964844 C 196.582031 227.871094 195.460938 227.773438 194.339844 227.65625 C 193.640625 227.582031 192.941406 227.503906 192.242188 227.433594 C 191.175781 227.3125 190.109375 227.195312 189.046875 227.058594 C 188.339844 226.972656 187.632812 226.875 186.925781 226.78125 C 185.859375 226.636719 184.785156 226.484375 183.722656 226.328125 C 183.039062 226.222656 182.363281 226.128906 181.679688 226.015625 C 180.542969 225.835938 179.414062 225.644531 178.285156 225.445312 C 177.6875 225.339844 177.09375 225.238281 176.496094 225.136719 C 175.082031 224.871094 173.667969 224.59375 172.25 224.308594 C 171.949219 224.246094 171.648438 224.1875 171.34375 224.132812 C 169.628906 223.777344 167.917969 223.394531 166.21875 222.996094 C 165.773438 222.894531 165.335938 222.78125 164.890625 222.671875 C 163.636719 222.367188 162.386719 222.066406 161.140625 221.742188 C 160.542969 221.582031 159.949219 221.421875 159.351562 221.265625 C 158.261719 220.96875 157.171875 220.675781 156.085938 220.367188 C 155.449219 220.183594 154.8125 220 154.175781 219.808594 C 153.128906 219.5 152.078125 219.183594 151.039062 218.855469 C 150.402344 218.65625 149.773438 218.457031 149.136719 218.257812 C 148.082031 217.917969 147.023438 217.566406 145.964844 217.210938 C 145.371094 217.011719 144.765625 216.804688 144.171875 216.597656 C 143.027344 216.199219 141.882812 215.789062 140.746094 215.367188 C 140.25 215.183594 139.757812 215.007812 139.273438 214.824219 C 137.675781 214.222656 136.078125 213.609375 134.496094 212.964844 C 134.472656 212.957031 134.457031 212.949219 134.433594 212.941406 C 132.804688 212.28125 131.183594 211.605469 129.570312 210.90625 C 129.15625 210.726562 128.742188 210.542969 128.320312 210.359375 C 127.144531 209.84375 125.976562 209.324219 124.816406 208.785156 C 124.269531 208.53125 123.726562 208.277344 123.1875 208.023438 C 122.152344 207.539062 121.121094 207.042969 120.09375 206.535156 C 119.515625 206.25 118.941406 205.964844 118.371094 205.675781 C 117.375 205.175781 116.382812 204.675781 115.398438 204.160156 C 114.824219 203.859375 114.253906 203.5625 113.679688 203.253906 C 112.679688 202.722656 111.675781 202.171875 110.675781 201.625 C 110.144531 201.328125 109.609375 201.042969 109.085938 200.742188 C 107.980469 200.121094 106.894531 199.484375 105.804688 198.84375 C 105.390625 198.605469 104.976562 198.367188 104.5625 198.117188 C 101.558594 196.332031 98.59375 194.460938 95.675781 192.523438 C 95.242188 192.238281 94.8125 191.933594 94.382812 191.648438 C 93.363281 190.964844 92.355469 190.273438 91.347656 189.574219 C 90.820312 189.207031 90.304688 188.835938 89.789062 188.46875 C 88.875 187.816406 87.96875 187.167969 87.0625 186.5 C 86.519531 186.101562 85.980469 185.695312 85.441406 185.289062 C 84.558594 184.628906 83.683594 183.964844 82.816406 183.296875 C 82.285156 182.882812 81.753906 182.46875 81.21875 182.046875 C 80.328125 181.347656 79.445312 180.632812 78.566406 179.917969 C 78.070312 179.519531 77.578125 179.121094 77.09375 178.726562 C 76.101562 177.90625 75.125 177.070312 74.144531 176.238281 C 73.78125 175.925781 73.414062 175.617188 73.050781 175.300781 C 71.714844 174.140625 70.386719 172.960938 69.066406 171.761719 C 68.859375 171.570312 68.652344 171.371094 68.445312 171.191406 C 67.351562 170.179688 66.261719 169.171875 65.179688 168.136719 C 64.734375 167.707031 64.296875 167.28125 63.851562 166.851562 C 63.234375 166.246094 62.613281 165.640625 62 165.03125 C 62.128906 164.15625 62.261719 163.28125 62.40625 162.40625 C 73.707031 92.445312 130.648438 39.621094 200.214844 32.589844 Z M 62.046875 207.441406 C 62.523438 207.816406 63.003906 208.171875 63.480469 208.546875 C 64.566406 209.390625 65.664062 210.230469 66.769531 211.050781 C 67.34375 211.480469 67.921875 211.902344 68.503906 212.324219 C 69.535156 213.085938 70.578125 213.832031 71.625 214.578125 C 72.214844 215 72.800781 215.414062 73.390625 215.828125 C 74.503906 216.597656 75.617188 217.363281 76.738281 218.117188 C 77.253906 218.464844 77.761719 218.816406 78.277344 219.15625 C 79.898438 220.230469 81.53125 221.296875 83.175781 222.328125 C 83.183594 222.335938 83.199219 222.34375 83.207031 222.351562 C 84.867188 223.394531 86.539062 224.417969 88.222656 225.421875 C 88.746094 225.730469 89.269531 226.035156 89.796875 226.34375 C 90.964844 227.027344 92.140625 227.710938 93.316406 228.378906 C 93.9375 228.726562 94.558594 229.070312 95.175781 229.410156 C 96.296875 230.03125 97.417969 230.644531 98.546875 231.246094 C 99.167969 231.582031 99.792969 231.914062 100.414062 232.242188 C 101.621094 232.867188 102.832031 233.488281 104.046875 234.101562 C 104.578125 234.371094 105.121094 234.640625 105.652344 234.910156 C 107.402344 235.769531 109.15625 236.621094 110.929688 237.4375 C 111.011719 237.472656 111.082031 237.511719 111.160156 237.542969 C 112.855469 238.320312 114.554688 239.085938 116.253906 239.832031 C 116.828125 240.078125 117.398438 240.324219 117.980469 240.5625 C 119.203125 241.085938 120.4375 241.605469 121.675781 242.105469 C 122.335938 242.375 122.996094 242.636719 123.664062 242.898438 C 124.847656 243.367188 126.039062 243.828125 127.230469 244.28125 C 127.890625 244.527344 128.550781 244.785156 129.210938 245.03125 C 130.507812 245.507812 131.800781 245.96875 133.105469 246.429688 C 133.65625 246.621094 134.195312 246.816406 134.742188 247.007812 C 134.757812 247.015625 134.765625 247.015625 134.78125 247.023438 C 118.242188 254.894531 102.839844 265.1875 89.136719 277.640625 C 74.28125 256.730469 64.839844 232.535156 61.628906 207.117188 C 61.761719 207.226562 61.90625 207.332031 62.046875 207.441406 Z M 110.097656 302.257812 C 134.703125 279.40625 166.089844 265.082031 199.417969 261.484375 L 199.417969 342.386719 C 166.15625 338.960938 134.773438 324.863281 110.097656 302.257812 Z M 231.992188 227.519531 L 231.992188 33.058594 C 250.773438 36.117188 268.378906 44.589844 282.558594 57.5625 C 299.851562 73.378906 310.964844 94.832031 313.84375 117.984375 C 314.351562 122.039062 314.605469 126.179688 314.605469 130.289062 C 314.613281 179.164062 278.757812 219.90625 231.992188 227.519531 Z M 231.992188 227.519531 " fill-opacity="1" fill-rule="nonzero"/></g><g clip-path="url(#b530f0bec9)"><g clip-path="url(#e8b87b22bb)"><path fill="#d93b60" d="M 270.6875 299.324219 L 346.363281 299.324219 L 346.363281 375 L 270.6875 375 Z M 270.6875 299.324219 " fill-opacity="1" fill-rule="nonzero"/></g></g></svg>